REM DIRINDEX 1\6,1\2\7,1\2\8,1\2\9,1\3\10,1\3\11,1\4\12,1\4\13,1\4\14,1\5\15,1\5\16,1\5\17
REM DIRNAME folder01,folder02,folder03,folder04,folder05,folder06,folder07,folder08,folder09,folder10,folder11,folder12,folder13,folder14,folder15,folder16,folder17
TITLE ""
FILE "P2Q_t2_0493-0510.mp3" MP3
  TRACK 01 AUDIO
    TITLE "7:cjc040_5309"
    INDEX 01 00:00:00
  TRACK 02 AUDIO
    TITLE "0:"
    INDEX 01 00:00:68
  TRACK 03 AUDIO
    TITLE "8:cjc040_5310"
    INDEX 01 00:01:48
  TRACK 04 AUDIO
    TITLE "0:"
    INDEX 01 00:03:74
  TRACK 05 AUDIO
    TITLE "9:cjc040_5311"
    INDEX 01 00:04:50
  TRACK 06 AUDIO
    TITLE "0:"
    INDEX 01 00:05:54
  TRACK 07 AUDIO
    TITLE "7:cjc040_5312"
    INDEX 01 00:07:37
  TRACK 08 AUDIO
    TITLE "0:"
    INDEX 01 00:08:68
  TRACK 09 AUDIO
    TITLE "8:cjc040_5313"
    INDEX 01 00:09:42
  TRACK 10 AUDIO
    TITLE "0:"
    INDEX 01 00:11:74
  TRACK 11 AUDIO
    TITLE "9:cjc040_5314"
    INDEX 01 00:12:44
  TRACK 12 AUDIO
    TITLE "0:"
    INDEX 01 00:14:07
  TRACK 13 AUDIO
    TITLE "7:cjc040_5315"
    INDEX 01 00:15:58
  TRACK 14 AUDIO
    TITLE "0:"
    INDEX 01 00:17:29
  TRACK 15 AUDIO
    TITLE "8:cjc040_5316"
    INDEX 01 00:18:01
  TRACK 16 AUDIO
    TITLE "0:"
    INDEX 01 00:20:04
  TRACK 17 AUDIO
    TITLE "9:cjc040_5317"
    INDEX 01 00:20:55
  TRACK 18 AUDIO
    TITLE "0:"
    INDEX 01 00:22:30
  TRACK 19 AUDIO
    TITLE "7:cjc040_5318"
    INDEX 01 00:24:08
  TRACK 20 AUDIO
    TITLE "0:"
    INDEX 01 00:25:35
  TRACK 21 AUDIO
    TITLE "8:cjc040_5319"
    INDEX 01 00:26:11
  TRACK 22 AUDIO
    TITLE "0:"
    INDEX 01 00:28:43
  TRACK 23 AUDIO
    TITLE "9:cjc040_5320"
    INDEX 01 00:29:23
  TRACK 24 AUDIO
    TITLE "0:"
    INDEX 01 00:30:46
  TRACK 25 AUDIO
    TITLE "7:cjc040_5321"
    INDEX 01 00:32:27
  TRACK 26 AUDIO
    TITLE "0:"
    INDEX 01 00:33:54
  TRACK 27 AUDIO
    TITLE "8:cjc040_5322"
    INDEX 01 00:34:36
  TRACK 28 AUDIO
    TITLE "0:"
    INDEX 01 00:35:49
  TRACK 29 AUDIO
    TITLE "9:cjc040_5323"
    INDEX 01 00:36:29
  TRACK 30 AUDIO
    TITLE "0:"
    INDEX 01 00:37:61
  TRACK 31 AUDIO
    TITLE "7:cjc040_5324"
    INDEX 01 00:39:45
  TRACK 32 AUDIO
    TITLE "0:"
    INDEX 01 00:40:58
  TRACK 33 AUDIO
    TITLE "8:cjc040_5325"
    INDEX 01 00:41:36
  TRACK 34 AUDIO
    TITLE "0:"
    INDEX 01 00:42:47
  TRACK 35 AUDIO
    TITLE "9:cjc040_5326"
    INDEX 01 00:43:29
  TRACK 36 AUDIO
    TITLE "0:"
    INDEX 01 00:44:46
  TRACK 37 AUDIO
    TITLE "7:cjc040_5327"
    INDEX 01 00:46:29
  TRACK 38 AUDIO
    TITLE "0:"
    INDEX 01 00:47:50
  TRACK 39 AUDIO
    TITLE "8:cjc040_5328"
    INDEX 01 00:48:26
  TRACK 40 AUDIO
    TITLE "0:"
    INDEX 01 00:49:31
  TRACK 41 AUDIO
    TITLE "9:cjc040_5329"
    INDEX 01 00:50:11
  TRACK 42 AUDIO
    TITLE "0:"
    INDEX 01 00:51:34
  TRACK 43 AUDIO
    TITLE "7:cjc040_5330"
    INDEX 01 00:53:21
  TRACK 44 AUDIO
    TITLE "0:"
    INDEX 01 00:54:17
  TRACK 45 AUDIO
    TITLE "8:cjc040_5331"
    INDEX 01 00:55:01
  TRACK 46 AUDIO
    TITLE "0:"
    INDEX 01 00:56:10
  TRACK 47 AUDIO
    TITLE "9:cjc040_5332"
    INDEX 01 00:56:63
  TRACK 48 AUDIO
    TITLE "0:"
    INDEX 01 00:57:60
  TRACK 49 AUDIO
    TITLE "7:cjc040_5333"
    INDEX 01 00:59:43
  TRACK 50 AUDIO
    TITLE "0:"
    INDEX 01 01:00:60
  TRACK 51 AUDIO
    TITLE "8:cjc040_5334"
    INDEX 01 01:01:38
  TRACK 52 AUDIO
    TITLE "0:"
    INDEX 01 01:04:33
  TRACK 53 AUDIO
    TITLE "9:cjc040_5335"
    INDEX 01 01:05:07
  TRACK 54 AUDIO
    TITLE "0:"
    INDEX 01 01:06:20
  TRACK 55 AUDIO
    TITLE "7:cjc040_5336"
    INDEX 01 01:08:03
  TRACK 56 AUDIO
    TITLE "0:"
    INDEX 01 01:09:09
  TRACK 57 AUDIO
    TITLE "8:cjc040_5337"
    INDEX 01 01:09:61
  TRACK 58 AUDIO
    TITLE "0:"
    INDEX 01 01:13:16
  TRACK 59 AUDIO
    TITLE "9:cjc040_5338"
    INDEX 01 01:13:65
  TRACK 60 AUDIO
    TITLE "0:"
    INDEX 01 01:14:72
  TRACK 61 AUDIO
    TITLE "7:cjc040_5339"
    INDEX 01 01:16:50
  TRACK 62 AUDIO
    TITLE "0:"
    INDEX 01 01:17:59
  TRACK 63 AUDIO
    TITLE "8:cjc040_5340"
    INDEX 01 01:18:43
  TRACK 64 AUDIO
    TITLE "0:"
    INDEX 01 01:20:53
  TRACK 65 AUDIO
    TITLE "9:cjc040_5341"
    INDEX 01 01:21:31
  TRACK 66 AUDIO
    TITLE "0:"
    INDEX 01 01:22:44
  TRACK 67 AUDIO
    TITLE "7:cjc040_5342"
    INDEX 01 01:24:24
  TRACK 68 AUDIO
    TITLE "0:"
    INDEX 01 01:25:43
  TRACK 69 AUDIO
    TITLE "8:cjc040_5343"
    INDEX 01 01:26:23
  TRACK 70 AUDIO
    TITLE "0:"
    INDEX 01 01:27:73
  TRACK 71 AUDIO
    TITLE "9:cjc040_5344"
    INDEX 01 01:28:55
  TRACK 72 AUDIO
    TITLE "0:"
    INDEX 01 01:29:74
  TRACK 73 AUDIO
    TITLE "7:cjc040_5345"
    INDEX 01 01:31:55
  TRACK 74 AUDIO
    TITLE "0:"
    INDEX 01 01:33:03
  TRACK 75 AUDIO
    TITLE "8:cjc040_5346"
    INDEX 01 01:33:56
  TRACK 76 AUDIO
    TITLE "0:"
    INDEX 01 01:34:63
  TRACK 77 AUDIO
    TITLE "9:cjc040_5347"
    INDEX 01 01:35:39
  TRACK 78 AUDIO
    TITLE "0:"
    INDEX 01 01:36:66
  TRACK 79 AUDIO
    TITLE "7:cjc040_5348"
    INDEX 01 01:38:51
  TRACK 80 AUDIO
    TITLE "0:"
    INDEX 01 01:39:55
  TRACK 81 AUDIO
    TITLE "8:cjc040_5349"
    INDEX 01 01:40:33
  TRACK 82 AUDIO
    TITLE "0:"
    INDEX 01 01:42:41
  TRACK 83 AUDIO
    TITLE "9:cjc040_5350"
    INDEX 01 01:43:17
  TRACK 84 AUDIO
    TITLE "0:"
    INDEX 01 01:44:26
  TRACK 85 AUDIO
    TITLE "7:cjc040_5351"
    INDEX 01 01:46:10
  TRACK 86 AUDIO
    TITLE "0:"
    INDEX 01 01:47:25
  TRACK 87 AUDIO
    TITLE "8:cjc040_5352"
    INDEX 01 01:48:09
  TRACK 88 AUDIO
    TITLE "0:"
    INDEX 01 01:50:09
  TRACK 89 AUDIO
    TITLE "9:cjc040_5353"
    INDEX 01 01:50:64
  TRACK 90 AUDIO
    TITLE "0:"
    INDEX 01 01:52:10
  TRACK 91 AUDIO
    TITLE "7:cjc040_5354"
    INDEX 01 01:53:67
  TRACK 92 AUDIO
    TITLE "0:"
    INDEX 01 01:55:13
  TRACK 93 AUDIO
    TITLE "8:cjc040_5355"
    INDEX 01 01:55:65
  TRACK 94 AUDIO
    TITLE "0:"
    INDEX 01 01:58:03
  TRACK 95 AUDIO
    TITLE "9:cjc040_5356"
    INDEX 01 01:58:60
  TRACK 96 AUDIO
    TITLE "0:"
    INDEX 01 02:00:06
  TRACK 97 AUDIO
    TITLE "7:cjc040_5357"
    INDEX 01 02:01:70
  TRACK 98 AUDIO
    TITLE "0:"
    INDEX 01 02:03:12
  TRACK 99 AUDIO
    TITLE "8:cjc040_5358"
    INDEX 01 02:03:67
  TRACK 100 AUDIO
    TITLE "0:"
    INDEX 01 02:05:07
  TRACK 101 AUDIO
    TITLE "9:cjc040_5359"
    INDEX 01 02:05:64
  TRACK 102 AUDIO
    TITLE "0:"
    INDEX 01 02:07:12
  TRACK 103 AUDIO
    TITLE "7:cjc040_5360"
    INDEX 01 02:08:68
  TRACK 104 AUDIO
    TITLE "0:"
    INDEX 01 02:10:08
  TRACK 105 AUDIO
    TITLE "8:cjc040_5361"
    INDEX 01 02:10:61
  TRACK 106 AUDIO
    TITLE "0:"
    INDEX 01 02:12:11
  TRACK 107 AUDIO
    TITLE "9:cjc040_5362"
    INDEX 01 02:12:64
  TRACK 108 AUDIO
    TITLE "0:"
    INDEX 01 02:14:04
